{"title":"An Awfully Big Adventure (1995) DVDRip x264 DTS -pong","uid":15357010,"size":1434573301,"categoryP":"video","categoryS":"movies","magnet":"?xt=urn:btih:3dd5f5954291410c8ec4e6937447b07d345d0a52&amp;dn=An+Awfully+Big+Adventure+%281995%29+DVDRip+x264+DTS+-pong&amp;tr=udp%3A%2F%2Ftracker.leechers-paradise.org%3A6969&amp;tr=udp%3A%2F%2Fzer0day.ch%3A1337&amp;tr=udp%3A%2F%2Fopen.demonii.com%3A1337&amp;tr=udp%3A%2F%2Ftracker.coppersurfer.tk%3A6969&amp;tr=udp%3A%2F%2Fexodus.desync.com%3A6969","seeders":0,"leechers":1,"uploader":"Pongydog","files":1,"time":1468981535,"description":"http://www.imdb.com/title/tt0112427/\r\n\r\n\r\n\r\nSet right after World War II, a naive teenage girl joins a shabby theatre troupe in Liverpool. During a winter production of Peter Pan, the play quickly turns into a dark metaphor for youth... See full summary » \r\n\r\nDirector: Mike Newell  \r\n\r\nWriters: Beryl Bainbridge (novel),  Charles Wood  \r\n\r\nStars: Hugh Grant,  Alan Rickman,  Georgina Cates  | See full cast &amp; crew » \r\n\r\nGeneral\r\nComplete name                            : C:Usersuser1VideosAn Awfully Big Adventure (1995) DVDRip x264 DTS -pong.mp4\r\nFormat                                   : MPEG-4\r\nFormat profile                           : Base Media\r\nCodec ID                                 : isom (isom/iso2/avc1/mp41)\r\nFile size                                : 1.34 GiB\r\nDuration                                 : 1h 52mn\r\nOverall bit rate                         : 1 702 Kbps\r\nEncoded date                             : UTC 2016-07-19 04:37:58\r\nTagged date                              : UTC 2016-07-19 04:37:58\r\nWriting application                      : Lavf57.36.100\r\n\r\nVideo\r\nID                                       : 1\r\nFormat                                   : AVC\r\nFormat/Info                              : Advanced Video Codec\r\nFormat profile                           :   \r\nFormat settings, CABAC                   : Yes\r\nFormat settings, ReFrames                : 8 frames\r\nCodec ID                                 : avc1\r\nCodec ID/Info                            : Advanced Video Coding\r\nDuration                                 : 1h 52mn\r\nBit rate                                 : 800 Kbps\r\nWidth                                    : 720 pixels\r\nHeight                                   : 460 pixels\r\nDisplay aspect ratio                     : 1.85:1\r\nFrame rate mode                          : Constant\r\nFrame rate                               : 29.970 (30000/1001) fps\r\nColor space                              : YUV\r\nChroma subsampling                       : 4:2:0\r\nBit depth                                : 8 bits\r\nScan type                                : Progressive\r\nBits/(Pixel*Frame)                       : 0.081\r\nStream size                              : 643 MiB (47%)\r\nWriting library                          : x264 core 148 r2643\r\nEncoding settings                        : cabac=1 / ref=8 / deblock=1:-1:-1 / analyse=0x1:0x131 / me=umh / subme=9 / psy=1 / psy_rd=1.00:0.15 / mixed_ref=0 / me_range=16 / chroma_me=1 / trellis=2 / 8x8dct=0 / cqm=0 / deadzone=21,11 / fast_pskip=1 / chroma_qp_offset=-3 / threads=3 / lookahead_threads=1 / sliced_threads=0 / nr=0 / decimate=1 / interlaced=0 / bluray_compat=0 / constrained_intra=0 / bframes=3 / b_pyramid=0 / b_adapt=2 / b_bias=0 / direct=3 / weightb=1 / open_gop=0 / weightp=2 / keyint=299 / keyint_min=29 / scenecut=40 / intra_refresh=0 / rc_lookahead=60 / rc=2pass / mbtree=1 / bitrate=800 / ratetol=1.0 / qcomp=0.60 / qpmin=10 / qpmax=69 / qpstep=4 / cplxblur=20.0 / qblur=0.5 / vbv_maxrate=2400 / vbv_bufsize=24000 / nal_hrd=none / filler=0 / ip_ratio=1.40 / aq=3:1.00\r\nEncoded date                             : UTC 2016-07-19 04:37:58\r\nTagged date                              : UTC 2016-07-19 04:37:58\r\n\r\nAudio\r\nID                                       : 2\r\nFormat                                   : DTS\r\nFormat/Info                              : Digital Theater Systems\r\nMode                                     : 16\r\nFormat settings, Endianness              : Big\r\nCodec ID                                 : A9\r\nDuration                                 : 1h 52mn\r\nBit rate mode                            : Constant\r\nBit rate                                 : 897 Kbps\r\nChannel(s)                               : 2 channels\r\nChannel(s)_Original                      : 6 channels\r\nChannel positions                        : Front: L C R, Side: L R, LFE\r\nSampling rate                            : 48.0 KHz\r\nFrame rate                               : 93.750 fps (512 spf)\r\nBit depth                                : 16 bits\r\nCompression mode                         : Lossy\r\nStream size                              : 721 MiB (53%)\r\nDefault                                  : Yes\r\nAlternate group                          : 1\r\nEncoded date                             : UTC 2016-07-19 04:37:58\r\nTagged date                              : UTC 2016-07-19 04:37:58","torrent":{"xt":"urn:btih:3dd5f5954291410c8ec4e6937447b07d345d0a52","amp;dn":"An+Awfully+Big+Adventure+%281995%29+DVDRip+x264+DTS+-pong","amp;tr":["udp%3A%2F%2Ftracker.leechers-paradise.org%3A6969","udp%3A%2F%2Fzer0day.ch%3A1337","udp%3A%2F%2Fopen.demonii.com%3A1337","udp%3A%2F%2Ftracker.coppersurfer.tk%3A6969","udp%3A%2F%2Fexodus.desync.com%3A6969"],"infoHash":"3dd5f5954291410c8ec4e6937447b07d345d0a52","infoHashBuffer":{"type":"Buffer","data":[61,213,245,149,66,145,65,12,142,196,230,147,116,71,176,125,52,93,10,82]},"announce":[],"urlList":[]}}